<?xml version="1.0" encoding="UTF-8"?><svg id="Layer_1" xmlns="http://www.w3.org/2000/svg" viewBox="0 0 400 180.94"><defs><style>.cls-1{fill:#00afc7;}.cls-2{fill:#fff;}.cls-3{fill:#fff033;}.cls-4{fill:#ffc582;}.cls-5{fill:#ffc100;}.cls-6{fill:#ff2c68;}.cls-7{fill:#ff8b00;}.cls-8{fill:#ff6e84;}.cls-9{fill:#743d38;}.cls-10{fill:#9fe4ff;}.cls-11{fill:#323031;}.cls-12{fill:#cea9f7;}.cls-13{fill:#c327c4;}.cls-14{fill:#a80038;}.cls-15{fill:#d0d0d0;}.cls-16{fill:#d5894c;}.cls-17{fill:#dc2ade;}.cls-18{fill:#428bc1;}.cls-19{fill:#3fb7c3;}.cls-20{fill:#42ade2;}.cls-21{fill:#45cfdd;}.cls-22{fill:#522a35;}</style></defs><path class="cls-2" d="m396.19,52.08c-2.8-3.34-6.73-5.38-11.06-5.76l-41.88-3.66-8.19-30.57c-2.33-8.68-11.28-13.85-19.96-11.52l-98.98,26.52c-8.68,2.33-13.85,11.28-11.52,19.96l4.56,17.02c-2.51.04-4.62.3-6.42.8-1.09.3-2.06.68-2.91,1.11-.9-.46-1.92-.85-3.08-1.16-2.04-.54-4.39-.8-7.4-.8-1.45,0-3.09.11-5.01.35-1.1.13-3.13.39-5.2,1.37-2.87-1-6.27-1.57-10.26-1.57h-9.36c-3.13,0-5.93,1.04-8.07,2.81-3.84-2.13-8.27-3.25-13.12-3.25-5.27,0-10.09,1.33-14.19,3.88-1.78-1.52-4.38-2.75-8.2-3.16-2.08-.22-3.86-.33-5.46-.33-2.83,0-5,.16-6.81.5-2.11.4-3.8,1.09-5.14,1.92-1.7-1.02-3.92-1.79-6.82-2.1-2.09-.22-3.87-.33-5.42-.33-2.74,0-4.82.16-6.53.49-.62.12-1.2.27-1.75.45-1.41-.6-2.9-.89-4.31-.89h-17.53c-1.78,0-3.46.39-4.95,1.07-1.12-.36-2.39-.64-3.84-.79-2.08-.22-3.86-.33-5.46-.33-2.83,0-5,.16-6.81.5-2.11.4-3.8,1.09-5.14,1.92-1.7-1.02-3.92-1.79-6.82-2.1-2.09-.22-3.87-.33-5.42-.33-2.74,0-4.82.16-6.53.49-7.2,1.42-9.9,6.68-10.04,10.91L0,107.3c-.16,3.95,1.73,7.6,5.03,9.84C1.8,121.45.16,126.84.16,133.19c0,7.18,2.06,13.07,6.14,17.53,4.26,4.66,9.93,7.13,16.4,7.13,2.74,0,5.3-.35,7.63-1.02.15.04.3.08.45.12,1.45.35,3.13.51,5.27.51,2.35,0,4.25-.26,5.99-.82.73-.23,1.42-.52,2.07-.87,2,1.05,4.66,1.76,8.19,1.76,1.02,0,2.26-.06,3.8-.2.73-.06,1.36-.14,1.94-.24.29.06.58.12.88.17,1.2.19,2.63.28,4.48.28s3.34-.1,4.58-.31c.57-.1,1.11-.22,1.63-.37,1.49.55,3.1.83,4.78.83,1.87,0,3.73-.38,5.62-1.15,1.5.59,3.16.92,4.93.92h6.76c6.82,0,12.39-2.23,16.34-6.25,4.32,4.42,10.08,6.75,16.68,6.75,2.82,0,5.44-.27,7.78-.79h0c.42-.09.81-.19,1.19-.29.21.06.42.12.64.17,1.45.35,3.13.51,5.28.51,2.35,0,4.25-.26,5.99-.82.73-.23,1.42-.52,2.07-.87,2,1.05,4.66,1.76,8.19,1.76,1.02,0,2.26-.06,3.8-.2.94-.08,1.73-.19,2.44-.34.45.11.92.19,1.41.27.05,0,.1.01.15.02,1.06.14,2.15.21,3.25.21,1.18,0,2.48-.11,3.99-.33.85-.13,1.65-.31,2.39-.54.64.21,1.32.38,2.04.5,1.03.17,2.2.25,3.66.25s2.7-.09,3.78-.28c.6-.11,1.19-.25,1.75-.44.43.15.89.27,1.36.38,1.38.31,2.96.46,4.96.46,1.26,0,2.59-.09,4.07-.28.64-.08,1.22-.19,1.77-.32,1.2.36,2.48.56,3.84.56h13.52c4.7,0,10-3.12,11.23-10.1.27-1.52.4-2.84.4-4.04,0-1.08-.08-2.13-.23-3.15-.35-2.43-1.16-4.42-2.26-6,.03-.42.04-.83.04-1.23,0-.34,0-.68-.02-1,.8-1.17,1.43-2.56,1.82-4.19.21-.9.35-1.87.43-2.99l5.67,21.16c1.13,4.21,3.82,7.72,7.59,9.9,3.77,2.18,8.16,2.75,12.37,1.63l5.32-1.43c.09,3.68,1.41,7.2,3.81,10.06,2.8,3.33,6.73,5.38,11.06,5.76l102.09,8.93c.48.04.97.06,1.45.06,3.82,0,7.49-1.33,10.45-3.81,3.34-2.8,5.38-6.73,5.76-11.06l8.93-102.08c.38-4.34-.95-8.56-3.75-11.9Zm-203.41,18.05c.04.07.08.15.12.22-.04-.07-.08-.15-.12-.22Zm177.53,89.19l-92.3-8.08.73-8.33c.3-3.45-1.1-6.82-3.75-9.05-2.65-2.22-6.22-3.02-9.56-2.12l-15.1,4.05-23.98-89.5,89.5-23.98,8.84,33c1.15,4.31,4.88,7.43,9.32,7.82l44.38,3.88-8.08,92.3Z"/><path class="cls-2" d="m246.71,145.74c-1.78,0-3.34-1.2-3.8-2.92l-26.52-98.98c-.27-1.02-.13-2.08.39-2.99s1.38-1.56,2.39-1.84l98.98-26.52c.34-.09.68-.14,1.02-.14,1.78,0,3.34,1.2,3.8,2.92l26.52,98.98c.27,1.02.13,2.08-.39,2.99s-1.38,1.56-2.39,1.84l-98.98,26.52c-.34.09-.68.14-1.02.14Z"/><path class="cls-11" d="m319.18,14.09c.99,0,1.86.67,2.11,1.63l26.52,98.98c.15.57.07,1.16-.22,1.66-.29.51-.77.87-1.33,1.02l-98.98,26.52c-.19.05-.38.08-.57.08-.99,0-1.86-.67-2.11-1.63l-26.52-98.98c-.31-1.17.38-2.37,1.55-2.69l98.98-26.52c.19-.05.38-.08.57-.08m0-3.5c-.49,0-.98.06-1.48.2l-98.98,26.52c-3.04.81-4.84,3.94-4.03,6.97l26.52,98.98c.68,2.54,2.98,4.22,5.5,4.22.49,0,.98-.06,1.48-.2l98.98-26.52c3.04-.81,4.84-3.94,4.03-6.97l-26.52-98.98c-.68-2.54-2.98-4.22-5.5-4.22h0Z"/><path class="cls-2" d="m282.99,122.5c-9.5,0-18.87-3.19-26.45-9-.18,0-.35.01-.53.01-3.35,0-6.66-1.62-8.85-4.33-2.19-2.7-3.05-6.09-2.45-9.61-1.57-2.94-2.81-6.06-3.67-9.3-6.2-23.15,7.59-47.04,30.74-53.24,3.69-.99,7.49-1.49,11.28-1.49,19.62,0,36.88,13.25,41.96,32.23.87,3.23,1.36,6.56,1.47,9.89,2.4,2.91,3.33,6.6,2.56,10.2-.74,3.41-2.9,6.28-5.84,7.78-5.22,12.61-15.73,21.83-28.92,25.37-3.69.99-7.49,1.49-11.28,1.49h0Z"/><path class="cls-11" d="m283.05,37.04c18.53,0,35.49,12.37,40.51,31.11.9,3.36,1.36,6.74,1.43,10.07,5.14,5.71,2.69,13.82-2.97,16.3-4.74,11.88-14.83,21.46-28.13,25.02-3.64.97-7.29,1.44-10.89,1.44-9.55,0-18.69-3.29-25.99-9.04-.33.04-.66.05-.99.05-5.79,0-11.24-5.58-9.73-12.69-1.61-2.92-2.9-6.07-3.8-9.44-6-22.39,7.29-45.4,29.67-51.4,3.64-.97,7.29-1.44,10.89-1.44m0-3.01c-3.92,0-7.85.52-11.67,1.54-11.6,3.11-21.3,10.55-27.31,20.95-6.01,10.4-7.6,22.52-4.49,34.13.85,3.18,2.05,6.26,3.57,9.17-.5,3.76.49,7.38,2.85,10.29,2.48,3.06,6.23,4.89,10.02,4.89.01,0,.03,0,.04,0,7.76,5.81,17.28,8.99,26.94,8.99,3.92,0,7.85-.52,11.67-1.54,13.47-3.61,24.24-12.96,29.71-25.75,3.09-1.77,5.34-4.88,6.13-8.53.84-3.89-.09-7.86-2.54-11.07-.14-3.28-.64-6.55-1.5-9.73-5.26-19.63-23.11-33.34-43.41-33.34h0Z"/><circle class="cls-5" cx="282.97" cy="79.11" r="41.96"/><path class="cls-9" d="m307.76,76c-.74-.56-1.68-.17-2.74.11q-21.33,5.71-42.65,11.43c-1.06.28-2.07.42-2.43,1.27-3.48,8.15,8.02,26.18,30.99,20.03,22.98-6.16,23.92-27.52,16.83-32.84Z"/><path class="cls-22" d="m288.98,91.6c-.79.19-1.8,1.24-.84,3.06.48.92,2.19,1.73,2.61,3.3.86,3.2-4.25,4.57-5.1,1.37-.42-1.58.65-3.13.61-4.17-.08-2.05-1.48-2.46-2.26-2.23-2.11.62-4.98,3.85-3.94,7.72,1.17,4.35,5.74,6.91,10.21,5.72,4.47-1.2,7.15-5.7,5.98-10.05-1.04-3.88-5.13-5.23-7.27-4.72Z"/><path class="cls-8" d="m279.3,107.12c3.36.49,7.04.31,10.97-.74,3.94-1.06,7.21-2.74,9.87-4.84-3.28-.61-6.97-.54-11.02.55s-7.29,2.87-9.82,5.04Z"/><path class="cls-2" d="m304.62,79.1q-20.2,5.41-40.41,10.83c-2.77.74-1.33,6.15,1.38,5.42,14.08-3.77,26.47-7.09,40.55-10.87,2.7-.72,1.25-6.13-1.52-5.39Z"/><path class="cls-1" d="m321.81,75.76c12.65,7.73,3.02,25.43-9.64,17.7-9.24-5.65-13.44-20.01-13.44-20.01,0,0,13.84-3.34,23.08,2.31Z"/><path class="cls-1" d="m264.85,106.14c-7.09,13.02-24.29,2.51-17.19-10.51,5.18-9.51,18.83-13.54,18.83-13.54,0,0,3.54,14.54-1.64,24.05Z"/><path class="cls-9" d="m277.07,75.87c-4.36-6.23-9.07-8.67-12.86-7.66s-6.64,5.48-7.3,13.06c-.06.76,1.57,1.67,2.03.81,1.75-3.22,4.38-5.02,7.42-5.84s6.23-.57,9.35,1.34c.83.51,1.79-1.09,1.35-1.72Z"/><path class="cls-9" d="m306.62,67.95c-4.36-6.23-9.07-8.67-12.86-7.66s-6.64,5.48-7.3,13.06c-.06.76,1.57,1.67,2.03.81,1.75-3.22,4.38-5.02,7.42-5.84s6.22-.57,9.35,1.34c.83.51,1.79-1.09,1.35-1.72Z"/><path class="cls-2" d="m374.64,168.57c-.12,0-.23,0-.35-.02l-102.08-8.93c-2.17-.19-3.77-2.11-3.58-4.27l8.93-102.08c.18-2.02,1.9-3.6,3.92-3.6.12,0,.23,0,.35.02l102.09,8.93c1.05.09,2,.59,2.68,1.39.68.81,1,1.83.91,2.88l-8.93,102.09c-.18,2.02-1.9,3.6-3.92,3.6Z"/><path class="cls-11" d="m281.47,51.42h0c.07,0,.13,0,.2,0l102.09,8.93c.58.05,1.11.33,1.49.77.38.45.56,1.02.5,1.6l-8.93,102.09c-.1,1.12-1.05,2-2.18,2-.07,0-.13,0-.2,0l-102.09-8.93c-1.2-.11-2.1-1.17-1.99-2.38l8.93-102.09c.1-1.12,1.05-2,2.18-2m0-3.5c-2.92,0-5.41,2.23-5.66,5.2l-8.93,102.09c-.27,3.13,2.04,5.89,5.18,6.17l102.09,8.93c.17.01.34.02.5.02,2.92,0,5.41-2.23,5.66-5.2l8.93-102.09c.27-3.13-2.04-5.89-5.18-6.17l-102.09-8.93c-.17-.01-.34-.02-.5-.02h0Z"/><path class="cls-2" d="m360.6,125.86l.12-1.42.42-4.75.74-8.51.21-2.4v-.04s.58-6.65.58-6.65c0-.01,0-.03,0-.04.26-2.96-1.65-5.89-5.14-8.49l.15-1.75h0s.4-4.56.4-4.56h0s.23-2.66.23-2.66h0s.12-1.41.12-1.41c.05-.58-.24-1.03-.7-1.34.6-.37,1.06-1.04,1.15-2.05.1-1.13-1.88-4.97-1.88-4.97,0,0-2.62,3.44-2.71,4.57-.09.97.22,1.7.71,2.17-.55.22-.96.62-1.01,1.24l-.32,3.69-.23,2.66-.16,1.82c-1.98-1.02-4.22-1.94-6.67-2.76.09-.25.15-.52.18-.83.12-1.36-2.27-6.01-2.27-6.01,0,0-2.89,3.8-3.25,5.33-2.9-.69-5.99-1.23-9.22-1.59l.05-.62.19-2.21.35-3.99.2-2.33.11-1.24c.04-.5-.15-.89-.48-1.18.46-.36.8-.95.87-1.79.09-.99-1.64-4.35-1.64-4.35,0,0-2.29,3.01-2.38,4-.07.81.14,1.43.5,1.86-.41.22-.71.59-.76,1.12l-.28,3.23-.2,2.33-.35,3.99-.07.84c-3.18-.2-6.26-.2-9.17-.03-.13-1.6-2.27-5.76-2.27-5.76,0,0-3.16,4.16-3.28,5.52-.02.29-.01.55.02.8-2.64.39-5.08.93-7.26,1.62l.36-4.14.23-2.66.12-1.41c.05-.59-.24-1.04-.7-1.35.6-.36,1.07-1.04,1.16-2.05.1-1.13-1.88-4.97-1.88-4.97,0,0-2.62,3.44-2.72,4.57-.09.97.23,1.7.72,2.17-.55.21-.97.62-1.02,1.24l-.32,3.69-.23,2.66-.36,4.11c-3.78,1.94-6.11,4.47-6.37,7.38h0s-.8,9.13-.8,9.13l-.74,8.51-.42,4.75-.09,1.05-.03.37c-5.23,2.45-8.48,5.74-8.81,9.58-.85,9.68,17.12,19.15,40.12,21.16s42.34-4.2,43.19-13.87c.34-3.84-2.29-7.64-7.02-10.97Z"/><ellipse class="cls-15" cx="325.81" cy="133.17" rx="17.59" ry="41.66" transform="translate(164.75 446.14) rotate(-85)"/><path class="cls-16" d="m295.18,96.15l-2.73,31.24c-.69,7.84,13.81,15.51,32.38,17.13,18.57,1.62,34.17-3.41,34.86-11.25l2.73-31.24-67.24-5.88Z"/><path class="cls-12" d="m294.59,102.85s0,.02,0,.04l.02-.03h-.02s0,0,0,0Z"/><path class="cls-12" d="m361.83,108.73h0s0,.02,0,.04v-.04Z"/><path class="cls-4" d="m361.61,111.16c-.64,5.55-22.32,9.87-34.64,8.79-12.33-1.08-32.93-9.09-32.59-14.67l-.74,8.51c16.22,13.95,48.84,16.8,67.24,5.88l.74-8.51Z"/><path class="cls-4" d="m360.45,124.42c-.64,5.56-22.32,9.87-34.64,8.79-12.33-1.08-32.93-9.09-32.59-14.67l-.74,8.51c16.2,13.95,48.86,16.8,67.24,5.88l.74-8.51Z"/><path class="cls-14" d="m295.18,96.15l-2.05,23.44c-.11,1.27.97,2.4,2.4,2.53s2.7-.8,2.81-2.07l.47-5.35c.15-1.69,1.81-2.92,3.73-2.75s3.34,1.67,3.19,3.35l-.58,6.6c-.17,1.96,1.49,3.71,3.71,3.9s4.16-1.24,4.33-3.2l.59-6.75c.15-1.76,1.9-3.05,3.9-2.88s3.5,1.75,3.34,3.51l-.38,4.3c-.09.98.74,1.85,1.86,1.95s2.08-.62,2.17-1.6l.3-3.41c.11-1.27,1.37-2.21,2.82-2.08s2.52,1.26,2.41,2.54l-.51,5.86c-.17,1.96,1.49,3.71,3.72,3.9s4.17-1.24,4.34-3.2l.57-6.57c.15-1.67,1.79-2.88,3.68-2.72s3.3,1.65,3.16,3.32l-.42,4.79c-.09.98.74,1.85,1.86,1.95s2.08-.62,2.17-1.6l.29-3.36c.08-.87.94-1.51,1.93-1.42s1.73.87,1.66,1.74l-.45,5.13c-.17,1.96,1.49,3.71,3.71,3.9s4.16-1.24,4.34-3.2l2.15-24.59-67.23-5.98Z"/><ellipse class="cls-6" cx="328.8" cy="99.09" rx="14.24" ry="33.75" transform="translate(201.42 418) rotate(-85)"/><path class="cls-20" d="m302.44,78.3l-1.31,14.99c-.19,2.14,4.27,2.15,4.43.39l1.31-14.99c.19-2.14-4.24-2.53-4.43-.39Z"/><polygon class="cls-18" points="306.74 80.1 302.12 81.99 301.88 84.65 306.51 82.76 306.74 80.1"/><polygon class="cls-18" points="301.49 89.22 301.26 91.74 305.89 89.85 306.11 87.32 301.49 89.22"/><path class="cls-7" d="m307.32,75.29c-.3,3.42-4.88,3.02-4.58-.4.1-1.13,2.71-4.57,2.71-4.57,0,0,1.97,3.84,1.87,4.97Z"/><path class="cls-3" d="m306.08,76.28c-.17,1.95-2.46,1.75-2.29-.2.05-.56,1.35-2.28,1.35-2.28,0,0,.99,1.92.94,2.48Z"/><path class="cls-20" d="m328.94,74.36l-1.15,13.12c-.18,2.05,3.72,2.06,3.87.34l1.15-13.12c.18-2.05-3.69-2.39-3.87-.34Z"/><polygon class="cls-18" points="332.71 75.94 328.66 77.59 328.45 79.92 332.5 78.26 332.71 75.94"/><polygon class="cls-18" points="328.1 83.91 327.91 86.12 331.96 84.47 332.15 82.26 328.1 83.91"/><path class="cls-7" d="m333.21,71.73c-.28,3.15-4.28,2.8-4.01-.35.09-.99,2.37-4,2.37-4,0,0,1.72,3.36,1.64,4.35Z"/><path class="cls-3" d="m332.12,72.59c-.16,1.88-2.17,1.71-2-.18.04-.49,1.18-2,1.18-2,0,0,.86,1.68.82,2.17Z"/><path class="cls-20" d="m353.78,82.77l-1.31,14.99c-.19,2.14,4.27,2.15,4.42.39l1.31-14.99c.19-2.14-4.24-2.53-4.42-.39Z"/><polygon class="cls-18" points="358.08 84.57 353.46 86.47 353.22 89.13 357.85 87.23 358.08 84.57"/><polygon class="cls-18" points="352.83 93.69 352.6 96.21 357.23 94.32 357.45 91.79 352.83 93.69"/><path class="cls-7" d="m358.65,79.76c-.3,3.44-4.88,3.04-4.58-.4.1-1.13,2.71-4.57,2.71-4.57,0,0,1.97,3.84,1.87,4.97Z"/><path class="cls-3" d="m357.42,80.75c-.17,1.95-2.46,1.75-2.29-.2.05-.57,1.35-2.29,1.35-2.29,0,0,.98,1.92.94,2.49Z"/><path class="cls-10" d="m313,88.6l-1.59,18.13c-.2,2.3,5.19,2.31,5.35.47l1.59-18.13c.2-2.3-5.15-2.77-5.35-.47Z"/><polygon class="cls-20" points="318.2 90.78 312.61 93.07 312.33 96.29 317.92 94 318.2 90.78"/><polygon class="cls-20" points="311.84 101.81 311.58 104.86 317.17 102.57 317.43 99.52 311.84 101.81"/><path class="cls-7" d="m318.89,84.97c-.33,3.82-5.87,3.33-5.53-.48.12-1.37,3.27-5.53,3.27-5.53,0,0,2.38,4.64,2.26,6.01Z"/><path class="cls-3" d="m317.4,86.17c-.18,2.07-2.95,1.83-2.77-.24.06-.68,1.63-2.76,1.63-2.76,0,0,1.19,2.32,1.13,3.01Z"/><path class="cls-10" d="m340.7,90.99l-1.59,18.13c-.2,2.3,5.19,2.31,5.35.47l1.59-18.13c.2-2.3-5.15-2.77-5.35-.47Z"/><polygon class="cls-20" points="345.9 93.17 340.31 95.46 340.03 98.67 345.62 96.38 345.9 93.17"/><polygon class="cls-20" points="339.54 104.19 339.28 107.24 344.87 104.95 345.14 101.9 339.54 104.19"/><path class="cls-7" d="m346.59,87.35c-.33,3.8-5.87,3.31-5.53-.48.12-1.36,3.27-5.53,3.27-5.53,0,0,2.38,4.65,2.26,6.01Z"/><path class="cls-3" d="m345.1,88.55c-.18,2.07-2.95,1.83-2.77-.24.06-.68,1.64-2.76,1.64-2.76,0,0,1.19,2.32,1.13,3.01Z"/><path class="cls-21" d="m44.76,110.33c-2.71,0-5.61-.17-5.61-2.23l-.65-12.4-3.91,13c-.42,1.25-1.91,1.48-4.53,1.48-2.32,0-4.12-.11-4.44-1.47l-3.97-12.96-.42,12.1c-.08,1.2-1.06,1.92-2.93,2.2-1.28.19-2.33.28-3.19.28s-1.69-.05-2.49-.16c-2.33-.34-3.46-1.19-3.39-2.53l1.13-31.81c0-1.98,2.76-2.38,7.22-2.38,1.21,0,2.7.09,4.44.28,1.64.17,3.38.53,3.88,1.86l4.23,11.91,3.69-11.89c.54-1.56,2.77-2.15,7.95-2.15,1.24,0,2.74.09,4.47.28,1.18.13,3.64.39,3.64,2.2l1.42,32.08c0,1.69-2.1,1.96-3,2.08-1.31.17-2.51.25-3.54.25Z"/><path class="cls-19" d="m41.77,74.7c1.21,0,2.65.09,4.33.27,1.68.18,2.52.5,2.52.95l1.42,32.13c0,.36-.64.62-1.91.78-1.27.16-2.4.24-3.38.24-2.91,0-4.36-.33-4.36-.98l-1.03-19.64-5.98,19.89c-.13.39-1.24.59-3.33.59s-3.17-.18-3.23-.54l-6.17-20.13-.69,19.54c-.03.49-.65.83-1.86,1-1.21.18-2.21.27-3.01.27s-1.58-.05-2.33-.15c-1.57-.23-2.34-.64-2.3-1.22l1.13-31.84c0-.78,1.99-1.18,5.98-1.18,1.18,0,2.61.09,4.31.27,1.7.18,2.65.53,2.84,1.05l5.49,15.43,4.8-15.48c.29-.85,2.55-1.27,6.76-1.27m0-2.5c-5.13,0-8.27.48-9.12,2.95,0,.03-.02.05-.03.08l-2.57,8.3-2.97-8.35c-.85-2.27-3.71-2.57-4.93-2.7-1.81-.19-3.3-.28-4.57-.28-3.36,0-8.42,0-8.48,3.62l-1.12,31.78c-.13,2.73,2.72,3.56,4.44,3.81.89.12,1.78.17,2.69.17s2.04-.1,3.38-.3c1.42-.21,3.83-.92,3.99-3.31,0-.03,0-.05,0-.08l.16-4.66,1.78,5.8c.59,2.4,3.62,2.4,5.65,2.4s4.94,0,5.7-2.3c0-.02.02-.05.02-.07l1.84-6.11.27,5.23c.07,3.4,4.65,3.4,6.86,3.4,1.09,0,2.33-.09,3.7-.27,2.71-.35,4.09-1.45,4.09-3.26,0-.04,0-.07,0-.11l-1.42-32.09c-.06-2.87-3.59-3.24-4.76-3.37-1.77-.19-3.32-.28-4.6-.28h0Z"/><path class="cls-21" d="m56.76,110.28c-2.29,0-3.11-1.43-3.11-2.77v-31.49c0-1.53.93-2.52,2.38-2.52h17.54c2.28,0,2.28,3.63,2.28,5.58s0,5.58-2.28,5.58h-7.81v2.45h5.07c2.18,0,2.18,3.28,2.18,4.68,0,.75-.08,1.63-.24,2.62-.32,2.03-1.29,2.45-2.04,2.45h-4.97v2.4h7.76c1.28,0,2.07,1.09,2.37,3.24.1.66.16,1.39.16,2.15s-.1,1.75-.31,2.94c-.32,1.79-1.06,2.7-2.21,2.7h-16.75Z"/><path class="cls-19" d="m73.56,74.74c.69,0,1.03,1.45,1.03,4.33s-.34,4.33-1.03,4.33h-9.06v4.95h6.32c.62,0,.93,1.14.93,3.43,0,.69-.07,1.49-.22,2.42s-.42,1.4-.81,1.4h-6.22v4.9h9.01c.55,0,.93.72,1.13,2.16.1.62.15,1.28.15,1.98s-.1,1.61-.29,2.72c-.2,1.11-.52,1.67-.98,1.67h-16.75c-1.24,0-1.86-.51-1.86-1.52v-31.49c0-.85.38-1.27,1.13-1.27h17.53m0-2.5h-17.53c-2.14,0-3.63,1.55-3.63,3.77v31.49c0,2,1.35,4.02,4.36,4.02h16.75c1.04,0,2.87-.48,3.44-3.73.22-1.26.33-2.29.33-3.15s-.06-1.61-.17-2.35c-.22-1.62-.99-4.29-3.6-4.29h-2.01c.92-.24,2.12-1.03,2.49-3.4.17-1.07.25-1.99.25-2.81,0-1.37,0-5.37-2.81-5.88h2.12c3.53,0,3.53-4.79,3.53-6.83s0-6.83-3.53-6.83h0Z"/><path class="cls-21" d="m113.33,110.33c-2.71,0-5.61-.17-5.61-2.23l-.65-12.4-3.91,13c-.42,1.25-1.91,1.48-4.53,1.48-2.32,0-4.12-.11-4.44-1.47l-3.97-12.96-.42,12.1c-.08,1.19-1.06,1.92-2.93,2.2-1.28.19-2.33.28-3.2.28s-1.69-.05-2.49-.16c-2.33-.34-3.46-1.19-3.39-2.53l1.13-31.81c0-1.98,2.76-2.38,7.22-2.38,1.21,0,2.7.09,4.44.28,1.64.17,3.38.53,3.88,1.86l4.23,11.91,3.69-11.89c.54-1.56,2.77-2.15,7.95-2.15,1.24,0,2.74.09,4.47.28,1.18.13,3.64.39,3.64,2.2l1.42,32.08c0,1.69-2.1,1.96-3,2.08-1.31.17-2.5.25-3.54.25Z"/><path class="cls-19" d="m110.34,74.7c1.21,0,2.65.09,4.33.27,1.68.18,2.52.5,2.52.95l1.42,32.13c0,.36-.64.62-1.91.78-1.27.16-2.4.24-3.38.24-2.91,0-4.36-.33-4.36-.98l-1.03-19.64-5.98,19.89c-.13.39-1.24.59-3.33.59s-3.17-.18-3.23-.54l-6.17-20.13-.69,19.54c-.03.49-.65.83-1.86,1-1.21.18-2.21.27-3.01.27s-1.58-.05-2.33-.15c-1.57-.23-2.34-.64-2.3-1.22l1.13-31.84c0-.78,1.99-1.18,5.98-1.18,1.18,0,2.61.09,4.31.27,1.7.18,2.65.53,2.84,1.05l5.49,15.43,4.8-15.48c.29-.85,2.55-1.27,6.76-1.27m0-2.5c-5.13,0-8.27.48-9.12,2.95,0,.03-.02.05-.03.08l-2.57,8.3-2.97-8.35c-.85-2.27-3.71-2.57-4.93-2.7-1.81-.19-3.3-.28-4.57-.28-3.36,0-8.42,0-8.48,3.62l-1.12,31.78c-.13,2.73,2.72,3.56,4.44,3.81.89.12,1.78.17,2.69.17s2.04-.1,3.38-.3c1.42-.21,3.83-.92,3.99-3.31,0-.03,0-.05,0-.08l.16-4.66,1.78,5.8c.59,2.4,3.62,2.4,5.65,2.4s4.94,0,5.7-2.3c0-.02.02-.05.02-.07l1.84-6.11.27,5.23c.07,3.4,4.65,3.4,6.86,3.4,1.09,0,2.33-.09,3.7-.27,2.71-.35,4.09-1.45,4.09-3.26,0-.04,0-.07,0-.11l-1.42-32.09c-.06-2.87-3.59-3.24-4.76-3.37-1.77-.19-3.32-.28-4.6-.28h0Z"/><path class="cls-21" d="m138.04,110.77c-4.92,0-9-1.65-12.12-4.89-3.11-3.23-4.68-7.95-4.68-14.02s1.6-10.78,4.74-13.98c3.15-3.21,7.26-4.83,12.21-4.83s9.02,1.6,12.09,4.76c3.06,3.15,4.61,7.91,4.61,14.15s-1.59,10.99-4.73,14.11c-3.14,3.12-7.21,4.7-12.12,4.7Zm.02-25.81c-1.17,0-2.11.52-2.94,1.65-.89,1.21-1.35,3-1.35,5.31s.43,4.08,1.28,5.24c.78,1.07,1.73,1.57,2.98,1.57s2.21-.51,3.01-1.59c.86-1.18,1.3-2.96,1.3-5.29s-.45-4.09-1.34-5.27c-.83-1.1-1.77-1.61-2.94-1.61Z"/><path class="cls-19" d="m138.19,74.3c4.62,0,8.35,1.46,11.19,4.38,2.84,2.92,4.26,7.35,4.26,13.27s-1.45,10.33-4.36,13.22c-2.91,2.89-6.65,4.33-11.24,4.33s-8.33-1.5-11.22-4.51c-2.89-3-4.33-7.39-4.33-13.15s1.46-10.13,4.38-13.1c2.92-2.97,6.69-4.46,11.31-4.46m-.15,25.67c1.65,0,2.99-.7,4.02-2.11,1.03-1.4,1.54-3.41,1.54-6.02s-.53-4.62-1.59-6.02c-1.06-1.4-2.38-2.11-3.94-2.11s-2.88.72-3.94,2.16c-1.06,1.44-1.59,3.45-1.59,6.05s.51,4.59,1.52,5.98c1.01,1.39,2.34,2.08,3.99,2.08m.15-28.17c-5.29,0-9.7,1.75-13.1,5.2-3.38,3.44-5.1,8.44-5.1,14.86s1.69,11.41,5.03,14.88c3.37,3.5,7.75,5.27,13.02,5.27s9.63-1.7,13-5.06c3.38-3.36,5.1-8.41,5.1-15s-1.67-11.62-4.97-15.02c-3.32-3.41-7.69-5.14-12.98-5.14h0Zm-.15,25.67c-.84,0-1.43-.32-1.97-1.05-.68-.93-1.04-2.49-1.04-4.5s.37-3.57,1.1-4.56c.74-1.01,1.39-1.14,1.93-1.14s1.21.13,1.95,1.11c.72.95,1.09,2.47,1.09,4.52s-.36,3.59-1.06,4.55c-.56.76-1.15,1.08-2,1.08h0Z"/><path class="cls-21" d="m175.88,110.57c-2.13,0-3.28-1.04-3.88-1.92-.04-.07-.08-.14-.11-.21l-3.72-8.68v8.57c0,1.88-2.56,2.03-5.9,2.03s-5.95-.14-5.95-1.98v-31.94c0-1.83,1.17-2.96,3.06-2.96h9.35c11.68,0,14.13,6.14,14.13,11.29,0,2.2-.44,4.24-1.3,6.05-.7,1.47-1.64,2.72-2.81,3.72l5.6,9.33c.19.31.23.69.11,1.04-.36,1.07-1.31,2.12-3.01,3.32-2.19,1.57-4.01,2.33-5.57,2.33Zm-7.71-21.12c2.08-.26,2.4-1.37,2.4-2.56,0-.81-.17-1.39-.52-1.71-.32-.31-.99-.49-1.88-.51v4.79Z"/><path class="cls-19" d="m168.72,74.74c8.59,0,12.88,3.35,12.88,10.04,0,2.02-.39,3.86-1.18,5.51-.78,1.65-1.89,2.96-3.33,3.94l6.17,10.29c-.26.78-1.11,1.68-2.55,2.69-1.96,1.4-3.58,2.11-4.85,2.11s-2.22-.46-2.84-1.37l-4.6-10.73h-1.52v11.12c0,.52-1.55.78-4.65.78s-4.7-.24-4.7-.73v-31.94c0-1.14.6-1.71,1.81-1.71h9.36m-1.81,16.02h.24c3.1,0,4.65-1.29,4.65-3.87,0-1.18-.3-2.05-.91-2.62-.6-.57-1.59-.86-2.96-.86h-1.03v7.35m1.81-18.52h-9.36c-2.58,0-4.31,1.69-4.31,4.21v31.94c0,3.23,4.16,3.23,7.2,3.23s7.15,0,7.15-3.28v-2.49l1.33,3.09c.06.15.14.29.23.42.76,1.13,2.24,2.47,4.91,2.47,1.83,0,3.89-.84,6.31-2.57,1.91-1.35,3.02-2.6,3.46-3.93.23-.69.15-1.45-.23-2.08l-5.08-8.47c.95-.97,1.74-2.11,2.35-3.4.94-1.98,1.42-4.19,1.42-6.58,0-10.91-9.64-12.54-15.38-12.54h0Z"/><path class="cls-21" d="m199.34,110.38c-.92,0-1.86-.05-2.78-.15-1.06-.13-3.81-.48-3.81-2.47v-11.36l-10.39-20.4h0c-.18-.35-.19-.82-.03-1.17.35-.76,1.17-.98,3-1.2,1.51-.18,2.82-.28,3.87-.28,4.79,0,7.19.81,7.8,2.62l2.47,6.91,2.88-6.99c.63-1.71,2.93-2.49,7.43-2.49.99,0,2.13.07,3.48.2,1.6.16,2.37.35,2.76,1.05.2.36.21.88.02,1.24l-10.06,20.21v11.66c0,1.93-2.65,2.27-3.79,2.42-.95.13-1.92.21-2.85.21Z"/><path class="cls-19" d="m189.2,74.6c4.02,0,6.22.59,6.61,1.76l3.58,9.99,4.11-9.99c.42-1.14,2.51-1.71,6.27-1.71.95,0,2.06.07,3.36.2,1.29.13,1.89.29,1.79.49l-10.19,20.47v11.95c0,.56-.9.95-2.69,1.18-.91.13-1.81.2-2.69.2s-1.76-.05-2.64-.15c-1.8-.23-2.69-.64-2.69-1.22v-11.66l-10.53-20.67c-.13-.2.54-.38,2.01-.56,1.47-.18,2.71-.27,3.72-.27m0-2.5c-1.12,0-2.44.09-4.02.29-1.62.2-3.29.4-3.98,1.92-.34.75-.31,1.6.08,2.31l10.23,20.08v11.06c0,2.05,1.64,3.29,4.88,3.7,1.01.11,1.99.17,2.96.17s2.02-.07,3.05-.22c1.17-.15,4.84-.61,4.84-3.65v-11.36l9.93-19.95c.38-.76.36-1.66-.05-2.4-.76-1.39-2.34-1.55-3.72-1.69-1.39-.14-2.57-.21-3.61-.21-3.41,0-7.47.38-8.59,3.29l-1.63,3.95-1.38-3.85c-1.04-3.03-5.12-3.44-8.97-3.44h0Z"/><path class="cls-17" d="m22.56,148.47c-3.83,0-7.02-1.37-9.5-4.08-2.45-2.68-3.69-6.45-3.69-11.22s1.27-8.59,3.78-11.37c2.54-2.82,5.76-4.25,9.56-4.25,2.06,0,3.92.3,5.51.89,2.49.92,3.01,2.34,3.01,3.37,0,1.13-.39,2.44-1.19,3.99-.69,1.34-1.57,2.71-2.87,2.71-.43,0-.85-.17-1.25-.51,0,0,0,0,0,0-.02,0-.21-.09-.72-.23-.51-.14-.93-.21-1.27-.21-1.16,0-2.06.39-2.75,1.19-.73.84-1.1,2.24-1.1,4.14s.38,3.29,1.13,4.13c.72.81,1.61,1.2,2.72,1.2.51,0,1.1-.08,1.76-.23.74-.17.96-.36,1-.4.29-.29.7-.44,1.2-.44.8,0,1.36.66,1.9,1.4.5.69.95,1.55,1.36,2.62.43,1.12.64,2,.64,2.68,0,1.1-.55,2.61-3.17,3.62-1.72.66-3.76.99-6.06.99Z"/><path class="cls-13" d="m22.72,118.81c1.92,0,3.62.27,5.08.81,1.46.54,2.19,1.27,2.19,2.19s-.35,2.06-1.05,3.42c-.7,1.36-1.28,2.04-1.76,2.04-.13,0-.28-.07-.45-.22-.17-.14-.57-.3-1.19-.47-.62-.17-1.15-.26-1.6-.26-1.53,0-2.76.54-3.7,1.62-.94,1.08-1.4,2.73-1.4,4.96s.48,3.88,1.44,4.96c.96,1.08,2.18,1.62,3.66,1.62.61,0,1.28-.09,2.04-.26.75-.17,1.28-.41,1.6-.73.05-.05.16-.08.32-.08s.45.3.89.89c.43.59.84,1.37,1.21,2.33.37.96.55,1.71.55,2.23,0,1.03-.79,1.84-2.37,2.45-1.58.61-3.45.91-5.61.91-3.48,0-6.34-1.23-8.58-3.68-2.24-2.45-3.36-5.91-3.36-10.37s1.15-7.98,3.46-10.53c2.31-2.56,5.18-3.83,8.63-3.83m0-2.5c-4.17,0-7.7,1.57-10.49,4.66-2.72,3.02-4.1,7.12-4.1,12.21s1.35,9.15,4.01,12.06c2.72,2.98,6.23,4.49,10.42,4.49,2.46,0,4.65-.36,6.51-1.07,3.46-1.33,3.98-3.57,3.98-4.78,0-.85-.23-1.85-.72-3.13-.45-1.18-.95-2.14-1.52-2.92-.52-.72-1.4-1.91-2.91-1.91-.97,0-1.61.38-1.99.73-.06.03-.21.08-.48.15-.56.13-1.06.19-1.48.19-.77,0-1.3-.23-1.79-.78-.53-.6-.81-1.74-.81-3.3s.27-2.72.79-3.32c.46-.53,1-.76,1.81-.76.12,0,.41.02.94.17.23.06.37.11.44.14.71.53,1.4.64,1.86.64,2.24,0,3.46-2.38,3.98-3.39.89-1.73,1.32-3.23,1.32-4.56,0-1.17-.5-3.31-3.83-4.54-1.74-.64-3.74-.97-5.95-.97h0Z"/><path class="cls-17" d="m52.16,148.15c-2.06,0-4.47-.23-4.93-2.05l-1.06-4.15h-4.32l-.92,3.93c-.42,2.19-3.76,2.19-5.01,2.19-1.38,0-2.39-.08-3.1-.25-.74-.18-1.87-.45-1.87-1.55v-.16l7-26.79c.12-1.38,1.63-1.38,6.66-1.38s6.54,0,6.66,1.38l6.84,26.82v.16c0,1.42-1.64,1.57-2.96,1.68-1.26.11-2.24.16-2.99.16Zm-7.72-13.72l-.45-2.05-.54,2.05h.98Z"/><path class="cls-13" d="m44.61,119.2c3.61,0,5.41.11,5.41.32l6.84,26.79c0,.18-.61.33-1.82.43-1.21.1-2.17.16-2.88.16-2.29,0-3.53-.37-3.72-1.11l-1.3-5.1h-6.28l-1.15,4.9c-.16.82-1.42,1.23-3.79,1.23-1.26,0-2.2-.07-2.81-.22-.61-.14-.91-.26-.91-.34l7-26.76c0-.21,1.8-.32,5.41-.32m-2.77,16.48h4.15l-1.78-8.18h-.24l-2.13,8.18m2.77-18.98c-1.87,0-3.25.03-4.21.08-.95.06-3.39.2-3.68,2.3l-6.94,26.55-.08.31v.32c0,2.09,2.06,2.58,2.83,2.77.81.19,1.89.29,3.39.29,1.38,0,5.57,0,6.24-3.19l.69-2.93h2.36l.82,3.22c.75,2.99,4.66,2.99,6.14,2.99.78,0,1.8-.05,3.1-.17,1.23-.11,4.1-.36,4.1-2.93v-.31l-.08-.3-6.79-26.6c-.28-2.11-2.73-2.26-3.68-2.31-.96-.06-2.34-.08-4.21-.08h0Z"/><path class="cls-17" d="m74.25,148.31c-1.82,0-2.81-.9-3.33-1.66l-.07-.1-2.59-6.03v5.74c0,1.88-2.77,1.88-5,1.88-2.36,0-5.04,0-5.04-1.84v-25.77c0-1.62,1.04-2.63,2.71-2.63h7.55c9.62,0,11.64,5.08,11.64,9.35,0,1.81-.36,3.49-1.07,4.98-.55,1.15-1.28,2.14-2.18,2.95l4.71,7.85-.18.55c-.31.91-1.11,1.8-2.52,2.8-1.81,1.29-3.33,1.93-4.63,1.93Zm-5.98-17.56c1.32-.25,1.45-1.01,1.45-1.79,0-.4-.06-.94-.34-1.21-.09-.09-.38-.28-1.11-.33v3.33Z"/><path class="cls-13" d="m68.48,119.16c6.93,0,10.39,2.7,10.39,8.1,0,1.63-.32,3.12-.95,4.45-.63,1.33-1.53,2.39-2.69,3.18l4.98,8.3c-.21.63-.9,1.36-2.06,2.17-1.58,1.13-2.88,1.7-3.91,1.7s-1.79-.37-2.29-1.11l-3.71-8.65h-1.23v8.97c0,.42-1.25.63-3.75.63s-3.79-.2-3.79-.59v-25.77c0-.92.49-1.38,1.46-1.38h7.55m-1.46,12.92h.2c2.5,0,3.75-1.04,3.75-3.12,0-.95-.24-1.65-.73-2.11-.49-.46-1.28-.69-2.39-.69h-.83v5.93m1.46-15.42h-7.55c-2.37,0-3.96,1.56-3.96,3.88v25.77c0,3.09,3.79,3.09,6.29,3.09,2.26,0,5.99,0,6.24-2.83l.16.36.09.22.13.2c.96,1.42,2.51,2.2,4.36,2.2,1.58,0,3.33-.71,5.37-2.17,1.63-1.15,2.58-2.23,2.97-3.41l.36-1.09-.59-.99-3.91-6.52c.69-.76,1.27-1.63,1.73-2.6.79-1.66,1.19-3.52,1.19-5.52,0-3.96-1.68-10.6-12.89-10.6h0Z"/><path class="cls-17" d="m84.8,148.08c-2.04,0-3.27-1.15-3.27-3.07v-23.71c0-.96.27-1.77.8-2.38.57-.66,1.34-1.01,2.23-1.01h6.6c4.51,0,8.01,1.18,10.41,3.51,2.42,2.34,3.64,5.99,3.64,10.86,0,13.05-7.43,15.79-13.66,15.79h-6.76Zm6.82-9.59c.82-.08,1.41-.43,1.85-1.06.41-.59.9-1.89.9-4.68s-.55-3.79-.79-4.03c-.41-.4-1.07-.65-1.96-.75v10.52Z"/><path class="cls-13" d="m91.17,119.16c4.19,0,7.37,1.05,9.54,3.16,2.17,2.11,3.26,5.43,3.26,9.96,0,9.7-4.14,14.54-12.41,14.54h-6.76c-1.34,0-2.02-.61-2.02-1.82v-23.71c0-.66.16-1.18.49-1.56.33-.38.76-.57,1.28-.57h6.6m.04,20.59c1.45,0,2.55-.54,3.3-1.62.75-1.08,1.13-2.88,1.13-5.39s-.39-4.16-1.17-4.92c-.78-.76-2.01-1.15-3.69-1.15h-.4v11.82c0,.55.04.9.12,1.05.08.15.32.22.71.22m-.04-23.09h-6.6c-1.25,0-2.38.51-3.18,1.44-.5.58-1.1,1.61-1.1,3.19v23.71c0,2.58,1.81,4.32,4.52,4.32h6.76c4.88,0,8.65-1.52,11.21-4.51,2.46-2.88,3.7-7.09,3.7-12.53s-1.35-9.17-4.02-11.75c-2.65-2.57-6.44-3.87-11.28-3.87h0Zm1.71,18.93v-5.53c.12.45.26,1.27.26,2.68,0,1.33-.11,2.24-.26,2.86h0Z"/><path class="cls-17" d="m124.58,148.58c-4.16,0-7.58-1.38-10.15-4.11-2.56-2.7-3.86-6.66-3.86-11.77,0-4.38,1.26-8.01,3.76-10.79,2.53-2.82,6.05-4.25,10.46-4.25,1.93,0,3.71.19,5.29.57,1.75.42,2.96,1.01,3.69,1.82l.27.29.05.4c.02.17.05.5.05,1.34,0,.73-.22,1.68-.67,2.9-.46,1.24-.99,2.16-1.61,2.82-.8.84-1.37,1.18-1.99,1.18-.51,0-1.01-.19-1.49-.57,0,0-.22-.16-1.07-.42-.62-.19-1.21-.28-1.77-.28-1.29,0-2.3.39-3.07,1.2-.78.81-1.17,2.17-1.17,4.03s.42,3.3,1.24,4.2c.8.88,1.67,1.31,2.67,1.31.4,0,.64-.04.79-.07l.07-5.1c0-.47.21-1.64,2.21-1.95.84-.13,1.52-.19,2.09-.19l1.69.13h.05c1.7.28,2.56.97,2.56,2.07l-.17,13.03-.53.37c-.68.47-1.83.88-3.62,1.28-1.68.37-3.61.56-5.75.56Z"/><path class="cls-13" d="m124.78,118.91c1.84,0,3.51.18,5,.53,1.49.36,2.51.84,3.06,1.44.03.21.04.61.04,1.19s-.2,1.4-.59,2.47c-.4,1.07-.84,1.86-1.34,2.39-.5.53-.86.79-1.09.79s-.46-.1-.71-.3c-.25-.2-.74-.41-1.48-.63-.74-.22-1.45-.34-2.13-.34-1.63,0-2.96.53-3.97,1.58-1.01,1.05-1.52,2.69-1.52,4.9s.52,3.89,1.56,5.04c1.04,1.15,2.24,1.72,3.6,1.72s2.04-.34,2.04-1.03l.08-5.37c0-.37.38-.61,1.15-.73.76-.12,1.4-.18,1.9-.18l1.54.12c1,.16,1.5.43,1.5.83l-.16,12.37c-.53.37-1.59.73-3.18,1.09-1.59.36-3.42.53-5.47.53-3.82,0-6.9-1.24-9.25-3.71-2.35-2.48-3.52-6.11-3.52-10.91,0-4.08,1.15-7.4,3.44-9.96,2.29-2.56,5.47-3.83,9.52-3.83m0-2.5c-4.78,0-8.61,1.57-11.39,4.66-2.71,3.02-4.08,6.93-4.08,11.63,0,5.43,1.41,9.68,4.2,12.63,2.82,2.98,6.55,4.5,11.06,4.5,2.23,0,4.25-.2,6.02-.59,1.99-.44,3.24-.9,4.07-1.48l1.05-.73.02-1.28.16-12.37c0-.85-.35-2.82-3.61-3.33l-.1-.02h-.1s-.97-.08-.97-.08c.64-.3,1.18-.8,1.64-1.28.74-.78,1.36-1.84,1.88-3.24.51-1.38.75-2.44.75-3.34s-.03-1.27-.06-1.49l-.1-.79-.54-.59c-.91-.99-2.32-1.71-4.33-2.19-1.67-.4-3.55-.6-5.58-.6h0Zm-.03,20.74c-.36-.08-.8-.3-1.3-.85-.61-.67-.91-1.8-.91-3.36s.28-2.61.82-3.17c.34-.35.93-.81,2.17-.81.43,0,.91.08,1.41.23.45.14.67.23.74.27.35.26.69.44,1,.55-.2.02-.4.05-.61.09-3.11.48-3.26,2.75-3.26,3.2l-.06,3.86h0Z"/><path class="cls-17" d="m155.72,148.26c-2.06,0-4.47-.23-4.93-2.05l-1.06-4.15h-4.32l-.92,3.94c-.42,2.19-3.76,2.19-5.01,2.19-1.38,0-2.39-.08-3.1-.25-.74-.18-1.87-.45-1.87-1.55v-.16l7-26.78c.12-1.38,1.63-1.38,6.66-1.38s6.54,0,6.66,1.38l6.84,26.82v.16c0,1.42-1.64,1.57-2.96,1.68-1.26.11-2.24.16-2.99.16Zm-7.72-13.72l-.45-2.05-.54,2.05h.98Z"/><path class="cls-13" d="m148.17,119.31c3.61,0,5.41.11,5.41.32l6.84,26.79c0,.18-.61.33-1.82.43-1.21.1-2.17.16-2.88.16-2.29,0-3.53-.37-3.72-1.11l-1.3-5.1h-6.28l-1.15,4.9c-.16.82-1.42,1.23-3.79,1.23-1.26,0-2.2-.07-2.81-.22-.61-.14-.91-.26-.91-.34l7-26.76c0-.21,1.8-.32,5.41-.32m-2.77,16.48h4.15l-1.78-8.18h-.24l-2.13,8.18m2.77-18.98c-1.87,0-3.25.03-4.21.08-.95.06-3.39.2-3.68,2.3l-6.94,26.55-.08.31v.32c0,2.09,2.06,2.58,2.83,2.77.81.19,1.89.29,3.39.29,1.38,0,5.57,0,6.24-3.19l.69-2.93h2.36l.82,3.22c.75,2.99,4.66,2.99,6.14,2.99.78,0,1.8-.05,3.1-.17,1.23-.11,4.1-.36,4.1-2.93v-.31l-.08-.3-6.79-26.6c-.28-2.11-2.73-2.26-3.68-2.31-.96-.06-2.34-.08-4.21-.08h0Z"/><path class="cls-17" d="m190.7,148.22c-1.78,0-4.77,0-4.77-2.04l-.45-8.6-2.75,9.16c-.38,1.15-1.66,1.36-3.88,1.36-1.56,0-3.48,0-3.82-1.37l-2.78-9.07-.29,8.32c-.07,1.1-.94,1.76-2.57,2-1.03.15-1.91.23-2.61.23s-1.38-.04-2.04-.13c-2.03-.29-3.01-1.07-2.94-2.3l.91-25.66c0-1.99,2.87-2.15,6.07-2.15.98,0,2.2.08,3.61.22,1.4.15,2.88.46,3.33,1.66l3.17,8.93,2.76-8.9c.48-1.4,2.28-1.91,6.65-1.91,1.01,0,2.23.08,3.63.22.94.1,3.15.34,3.15,2.01l1.14,25.87c0,1.59-1.91,1.84-2.63,1.93-1.07.14-2.04.21-2.88.21Z"/><path class="cls-13" d="m188.29,119.23c.97,0,2.14.07,3.5.22,1.36.15,2.04.4,2.04.77l1.15,25.93c0,.29-.51.5-1.54.63-1.03.13-1.94.2-2.73.2-2.35,0-3.52-.26-3.52-.79l-.83-15.85-4.82,16.05c-.11.32-1,.47-2.69.47s-2.56-.14-2.61-.43l-4.98-16.24-.55,15.77c-.03.4-.53.67-1.5.81-.97.15-1.78.22-2.43.22s-1.27-.04-1.88-.12c-1.26-.18-1.88-.51-1.86-.99l.91-25.69c0-.63,1.61-.95,4.82-.95.95,0,2.11.07,3.48.22,1.37.15,2.13.43,2.29.85l4.43,12.45,3.87-12.49c.24-.68,2.06-1.03,5.45-1.03m0-2.5c-3.62,0-6.95.21-7.82,2.71v.04s-.03.04-.03.04l-1.65,5.31-1.91-5.37c-.79-2.12-3.31-2.38-4.38-2.5-1.48-.16-2.7-.23-3.74-.23-2.72,0-7.27,0-7.32,3.39l-.91,25.64c-.13,2.68,2.75,3.39,4,3.57.75.1,1.49.14,2.24.14s1.69-.08,2.8-.24c3-.45,3.56-2.14,3.63-3.11v-.04s0-.04,0-.04l.03-.88.58,1.91c.56,2.29,3.35,2.29,5.03,2.29s4.33,0,5.06-2.18v-.04s.02-.04.02-.04l.68-2.27.08,1.44c.07,3.21,4.23,3.21,6.02,3.21.9,0,1.92-.07,3.05-.22,3.08-.39,3.72-1.91,3.72-3.11v-.11s-1.15-25.89-1.15-25.89c-.04-1.81-1.47-2.89-4.27-3.18-1.46-.16-2.69-.23-3.76-.23h0Z"/><path class="cls-17" d="m200.38,148.18c-2.03,0-2.75-1.28-2.75-2.47v-25.41c0-1.38.85-2.28,2.16-2.28h14.15c2.08,0,2.08,3.09,2.08,4.75s0,4.75-2.08,4.75h-6.06v1.49h3.85c2,0,2,2.81,2,4.02,0,.62-.06,1.33-.19,2.15-.3,1.9-1.31,2.18-1.89,2.18h-3.77v1.45h6.02c1.17,0,1.89.95,2.15,2.82.09.54.13,1.14.13,1.77s-.08,1.43-.26,2.41c-.35,1.96-1.29,2.38-2.02,2.38h-13.52Z"/><path class="cls-13" d="m213.93,119.27c.55,0,.83,1.17.83,3.5s-.28,3.5-.83,3.5h-7.31v3.99h5.1c.5,0,.75.92.75,2.77,0,.55-.06,1.21-.18,1.96-.12.75-.34,1.13-.65,1.13h-5.02v3.95h7.27c.45,0,.75.58.91,1.74.08.5.12,1.03.12,1.6s-.08,1.3-.24,2.19c-.16.9-.42,1.34-.79,1.34h-13.52c-1,0-1.5-.41-1.5-1.23v-25.41c0-.68.3-1.03.91-1.03h14.15m0-2.5h-14.15c-2.01,0-3.41,1.45-3.41,3.53v25.41c0,1.85,1.24,3.73,4,3.73h13.52c.8,0,2.71-.33,3.25-3.41.19-1.05.28-1.91.28-2.63s-.05-1.35-.15-1.97c-.17-1.19-.83-3.87-3.38-3.87h-.03c.4-.48.74-1.18.9-2.19.14-.89.21-1.66.21-2.35,0-1.97-.35-3.39-1.04-4.26,3.33,0,3.33-4.36,3.33-6s0-6-3.33-6h0Z"/></svg>